# xmcd
#
# Track frame offsets:
#	150
#	17776
#	33883
#	47628
#	61029
#	85619
#	99356
#	115768
#	130529
#	143185
#	159700
#	174501
#	184592
#	199582
#	214584
#	233132
#	250217
#	268952
#	283595
#	299935
#	317040
#
# Disc length: 4453 seconds
#
# Revision: 4
# Processed by: cddbd v1.5.2PL0 Copyright (c) Steve Scherf et al.
# Submitted via: EZCDAudioConverter 7.0.6.1
#
DISCID=29116315
DTITLE=The Sound - Jeopardy
DYEAR=2014
DGENRE=
TTITLE0=I Can't Escape Myself
TTITLE1=Heartland
TTITLE2=Hour Of Need
TTITLE3=Words Fail Me
TTITLE4=Missiles
TTITLE5=Heyday
TTITLE6=Jeopardy
TTITLE7=Night Versus Day
TTITLE8=Resistance
TTITLE9=Unwritten Law
TTITLE10=Desire
TTITLE11=Physical World
TTITLE12=Brute Force
TTITLE13=Heartland [Live]
TTITLE14=Brute Force [Live]
TTITLE15=Jeopardy [Live]
TTITLE16=Coldbeat [Live]
TTITLE17=Heartland [BBC Session October 1980]
TTITLE18=Unwritten Law [BBC Session October 1980]
TTITLE19=Jeopardy [BBC Session October 1980]
TTITLE20=I Can't Escape Myself [BBC Session October 1980]
EXTD=
EXTT0=
EXTT1=
EXTT2=
EXTT3=
EXTT4=
EXTT5=
EXTT6=
EXTT7=
EXTT8=
EXTT9=
EXTT10=
EXTT11=
EXTT12=
EXTT13=
EXTT14=
EXTT15=
EXTT16=
EXTT17=
EXTT18=
EXTT19=
EXTT20=
PLAYORDER=
